<?xml version="1.0" encoding="UTF-8"?>
<svg id="Layer_2" data-name="Layer 2" xmlns="http://www.w3.org/2000/svg" viewBox="0 0 288.45 63.69">
  <defs>
    <style>
      .cls-1 {
        stroke: #003245;
        stroke-width: 4.78px;
      }

      .cls-1, .cls-2 {
        fill: none;
        stroke-linecap: round;
        stroke-miterlimit: 10;
      }

      .cls-3 {
        fill: #003245;
      }

      .cls-2 {
        stroke: #108cb1;
        stroke-width: 3.53px;
      }
    </style>
  </defs>
  <g id="Layer_1-2" data-name="Layer 1">
    <g>
      <g>
        <g>
          <path class="cls-1" d="M81.37,2.39H17.12c-8.13,0-14.73,6.59-14.73,14.73s6.59,14.73,14.73,14.73h39.69"/>
          <path class="cls-1" d="M38.13,31.85h35.54c8.13,0,14.73,6.59,14.73,14.73,0,8.13-6.59,14.73-14.73,14.73H11.24"/>
        </g>
        <line class="cls-2" x1="14.28" y1="17.12" x2="76.9" y2="17.12"/>
        <line class="cls-2" x1="14.28" y1="46.57" x2="76.9" y2="46.57"/>
      </g>
      <g>
        <path class="cls-3" d="M133.36,44.96c-2.06,0-4.03-.31-5.91-.95-1.88-.63-3.36-1.45-4.45-2.46l1.43-3.02c1.03.9,2.34,1.65,3.94,2.24,1.6.59,3.26.89,4.99.89,1.57,0,2.85-.18,3.83-.54.98-.36,1.7-.86,2.17-1.49.46-.63.7-1.35.7-2.15,0-.93-.3-1.67-.91-2.24-.61-.57-1.39-1.02-2.36-1.37-.97-.35-2.03-.65-3.19-.91-1.16-.26-2.33-.56-3.5-.91-1.17-.35-2.24-.79-3.21-1.33-.97-.54-1.75-1.27-2.34-2.18-.59-.92-.89-2.09-.89-3.54s.37-2.67,1.1-3.85,1.87-2.11,3.4-2.82c1.53-.71,3.49-1.06,5.86-1.06,1.57,0,3.13.21,4.68.62,1.55.41,2.89,1,4.02,1.78l-1.28,3.09c-1.16-.77-2.38-1.33-3.67-1.68-1.29-.35-2.54-.52-3.75-.52-1.52,0-2.77.19-3.75.58s-1.69.9-2.15,1.55c-.45.64-.68,1.37-.68,2.17,0,.95.3,1.71.91,2.28.61.57,1.39,1.02,2.36,1.35.97.34,2.03.64,3.19.91,1.16.27,2.33.57,3.5.91s2.24.77,3.21,1.31,1.75,1.26,2.34,2.17c.59.9.89,2.06.89,3.48s-.37,2.63-1.12,3.81c-.75,1.17-1.9,2.11-3.46,2.82s-3.52,1.06-5.9,1.06Z"/>
        <path class="cls-3" d="M146,27.22v-3.05h13.07v3.05h-13.07ZM155.97,44.88c-2.06,0-3.66-.55-4.79-1.66-1.13-1.11-1.7-2.69-1.7-4.75v-18.79h3.71v18.63c0,1.11.28,1.96.83,2.55.55.59,1.35.89,2.38.89,1.16,0,2.13-.32,2.9-.97l1.16,2.67c-.57.49-1.24.85-2.03,1.08s-1.6.35-2.46.35Z"/>
        <path class="cls-3" d="M173.56,44.88c-1.75,0-3.29-.32-4.62-.97-1.33-.64-2.36-1.63-3.09-2.96-.73-1.33-1.1-3-1.1-5.01v-11.79h3.71v11.37c0,2.01.48,3.52,1.45,4.52.97,1,2.33,1.51,4.08,1.51,1.29,0,2.41-.26,3.36-.79.95-.53,1.69-1.3,2.2-2.32.52-1.02.77-2.25.77-3.69v-10.59h3.71v20.49h-3.52v-5.53l.58,1.47c-.67,1.37-1.68,2.42-3.02,3.17-1.34.75-2.85,1.12-4.52,1.12Z"/>
        <path class="cls-3" d="M199.58,44.88c-1.99,0-3.76-.44-5.32-1.31-1.56-.88-2.79-2.1-3.69-3.67s-1.35-3.4-1.35-5.49.45-3.91,1.35-5.47,2.13-2.78,3.69-3.65c1.56-.88,3.33-1.31,5.32-1.31,1.73,0,3.29.39,4.68,1.16,1.39.77,2.51,1.93,3.34,3.48.84,1.55,1.26,3.48,1.26,5.8s-.41,4.25-1.22,5.8c-.81,1.55-1.91,2.71-3.31,3.5s-2.98,1.18-4.75,1.18ZM199.89,41.64c1.29,0,2.45-.3,3.5-.89,1.04-.59,1.87-1.44,2.47-2.53.61-1.1.91-2.36.91-3.81s-.3-2.74-.91-3.81c-.61-1.07-1.43-1.9-2.47-2.49s-2.21-.89-3.5-.89-2.49.3-3.52.89c-1.03.59-1.86,1.42-2.47,2.49-.62,1.07-.93,2.34-.93,3.81s.31,2.71.93,3.81c.62,1.1,1.44,1.94,2.47,2.53,1.03.59,2.2.89,3.52.89ZM206.88,44.65v-5.53l.23-4.75-.39-4.76v-13.65h3.71v28.69h-3.56Z"/>
        <path class="cls-3" d="M219.33,20.22c-.72,0-1.32-.23-1.8-.7-.48-.46-.72-1.03-.72-1.7s.24-1.28.72-1.74c.48-.46,1.08-.7,1.8-.7s1.32.23,1.8.68c.48.45.72,1.01.72,1.68s-.23,1.28-.7,1.76c-.46.48-1.07.72-1.82.72ZM217.48,44.65v-20.49h3.71v20.49h-3.71Z"/>
        <path class="cls-3" d="M236.88,44.88c-1.75,0-3.29-.32-4.62-.97-1.33-.64-2.36-1.63-3.09-2.96-.73-1.33-1.1-3-1.1-5.01v-11.79h3.71v11.37c0,2.01.48,3.52,1.45,4.52.97,1,2.33,1.51,4.08,1.51,1.29,0,2.41-.26,3.36-.79.95-.53,1.69-1.3,2.2-2.32.52-1.02.77-2.25.77-3.69v-10.59h3.71v20.49h-3.52v-5.53l.58,1.47c-.67,1.37-1.68,2.42-3.02,3.17-1.34.75-2.85,1.12-4.52,1.12Z"/>
        <path class="cls-3" d="M280.06,23.97c1.65,0,3.1.32,4.37.97,1.26.64,2.25,1.62,2.96,2.94s1.06,2.98,1.06,4.99v11.79h-3.71v-11.37c0-1.98-.46-3.48-1.39-4.48s-2.23-1.51-3.9-1.51c-1.24,0-2.32.26-3.25.77s-1.64,1.28-2.15,2.28c-.5,1-.75,2.25-.75,3.75v10.55h-3.71v-11.37c0-1.98-.46-3.48-1.37-4.48s-2.22-1.51-3.92-1.51c-1.21,0-2.28.26-3.21.77s-1.65,1.28-2.17,2.28c-.52,1-.77,2.25-.77,3.75v10.55h-3.71v-20.49h3.56v5.45l-.58-1.39c.64-1.34,1.64-2.38,2.98-3.13,1.34-.75,2.9-1.12,4.68-1.12,1.96,0,3.65.48,5.06,1.45,1.42.97,2.34,2.43,2.78,4.39l-1.51-.62c.62-1.57,1.7-2.83,3.25-3.79,1.55-.95,3.35-1.43,5.41-1.43Z"/>
      </g>
    </g>
  </g>
</svg>