<?xml version="1.0" encoding="UTF-8"?>
<svg id="Layer_2" data-name="Layer 2" xmlns="http://www.w3.org/2000/svg" viewBox="0 0 128.78 128.78">
  <defs>
    <style>
      .cls-1 {
        fill: #128cb1;
      }

      .cls-2 {
        fill: #fff;
      }

      .cls-3 {
        fill: #003245;
      }
    </style>
  </defs>
  <g id="Layer_1-2" data-name="Layer 1">
    <g>
      <rect class="cls-2" width="128.78" height="128.78"/>
      <path class="cls-3" d="M79.72,48.56h-30.66c-3.69,0-6.69-3-6.69-6.69s3-6.69,6.69-6.69h34.84c.72,0,1.3-.58,1.3-1.3s-.58-1.3-1.3-1.3h-34.84c-5.12,0-9.28,4.16-9.28,9.28s4.16,9.28,9.28,9.28h30.66c3.69,0,6.69,3,6.69,6.69s-3,6.69-6.69,6.69h-33.85c-.72,0-1.3.58-1.3,1.3s.58,1.3,1.3,1.3h33.85c5.12,0,9.28-4.16,9.28-9.28s-4.16-9.28-9.28-9.28Z"/>
      <g>
        <path class="cls-1" d="M81.37,42.82h-33.95c-.53,0-.96-.43-.96-.96s.43-.96.96-.96h33.95c.53,0,.96.43.96.96s-.43.96-.96.96Z"/>
        <path class="cls-1" d="M81.37,58.79h-33.95c-.53,0-.96-.43-.96-.96s.43-.96.96-.96h33.95c.53,0,.96.43.96.96s-.43.96-.96.96Z"/>
      </g>
      <g>
        <path class="cls-3" d="M35.76,86.56c-.42-.23-.88-.42-1.39-.57-.51-.15-1.01-.28-1.52-.39-.5-.12-.96-.25-1.38-.39s-.76-.34-1.02-.59c-.26-.25-.39-.58-.39-.99,0-.35.1-.66.29-.94.2-.28.51-.5.93-.67.42-.17.97-.25,1.63-.25.53,0,1.07.08,1.63.23.56.15,1.09.39,1.59.73l.55-1.34c-.49-.34-1.07-.59-1.74-.77-.67-.18-1.35-.27-2.03-.27-1.03,0-1.88.15-2.54.46-.67.31-1.16.72-1.48,1.22-.32.51-.48,1.06-.48,1.67s.13,1.14.39,1.53c.26.4.6.71,1.01.95.42.24.88.43,1.39.58.51.15,1.01.28,1.52.39.5.11.96.24,1.38.39.42.15.76.35,1.02.6.26.25.39.57.39.97,0,.35-.1.66-.3.93-.2.27-.51.49-.94.65-.43.16-.98.24-1.66.24-.75,0-1.47-.13-2.16-.39-.69-.26-1.26-.58-1.71-.97l-.62,1.31c.47.44,1.11.79,1.93,1.06.82.27,1.67.41,2.57.41,1.03,0,1.88-.15,2.56-.46.68-.31,1.18-.72,1.5-1.22.32-.51.49-1.06.49-1.65s-.13-1.12-.39-1.51c-.26-.39-.6-.7-1.01-.94Z"/>
        <path class="cls-3" d="M42.62,90.95c-.45,0-.79-.13-1.03-.39s-.36-.63-.36-1.11v-4.81h2.55v-1.32h-2.55v-1.95h-1.61v1.95h-1.51v1.32h1.51v4.88c0,.89.25,1.58.74,2.06.49.48,1.19.72,2.08.72.37,0,.72-.05,1.07-.15.34-.1.63-.26.88-.47l-.5-1.16c-.34.28-.75.42-1.26.42Z"/>
        <path class="cls-3" d="M53.08,90.88v1.33h1.53v-8.89h-1.61v4.6c0,.63-.11,1.16-.34,1.6-.22.44-.54.78-.96,1.01-.41.23-.9.34-1.46.34-.76,0-1.35-.22-1.77-.65s-.63-1.09-.63-1.96v-4.93h-1.61v5.11c0,.87.16,1.6.48,2.17.32.58.77,1,1.34,1.28.58.28,1.24.42,2,.42s1.38-.16,1.96-.49c.43-.24.78-.56,1.06-.95Z"/>
        <path class="cls-3" d="M59.04,91.74c.68.38,1.44.57,2.31.57.77,0,1.46-.17,2.06-.51.44-.25.8-.58,1.11-1v1.41h1.54v-12.44h-1.61v4.91c-.3-.39-.66-.71-1.07-.94-.6-.34-1.28-.5-2.03-.5-.86,0-1.63.19-2.31.57s-1.21.91-1.6,1.58c-.39.68-.59,1.47-.59,2.37s.2,1.7.59,2.38c.39.68.92,1.21,1.6,1.59ZM58.88,86.12c.27-.46.63-.82,1.07-1.08.45-.26.96-.39,1.53-.39s1.06.13,1.52.39c.45.26.81.62,1.07,1.08.26.46.39,1.01.39,1.65s-.13,1.18-.39,1.65c-.26.48-.62.84-1.07,1.1-.45.26-.96.39-1.52.39s-1.08-.13-1.53-.39c-.45-.26-.81-.62-1.07-1.1-.27-.47-.4-1.03-.4-1.65s.13-1.19.4-1.65Z"/>
        <rect class="cls-3" x="69.11" y="83.32" width="1.61" height="8.89"/>
        <path class="cls-3" d="M69.92,81.61c.32,0,.59-.1.79-.31.2-.21.3-.46.3-.76s-.1-.53-.31-.73c-.21-.2-.47-.29-.78-.29s-.57.1-.78.3c-.21.2-.31.45-.31.75s.1.54.31.74c.21.2.47.3.78.3Z"/>
        <path class="cls-3" d="M82.08,92.21v-8.89h-1.61v4.6c0,.63-.11,1.16-.34,1.6-.22.44-.54.78-.96,1.01-.41.23-.9.34-1.46.34-.76,0-1.35-.22-1.77-.65s-.63-1.09-.63-1.96v-4.93h-1.61v5.11c0,.87.16,1.6.48,2.17.32.58.77,1,1.34,1.28.58.28,1.24.42,2,.42s1.38-.16,1.96-.49c.43-.24.78-.56,1.06-.95v1.33h1.53Z"/>
        <path class="cls-3" d="M99.44,84.93c-.31-.57-.74-1-1.28-1.27-.55-.28-1.18-.42-1.9-.42-.89,0-1.68.21-2.35.62-.46.28-.81.63-1.08,1.03-.22-.42-.5-.77-.88-1.02-.62-.42-1.35-.63-2.2-.63-.77,0-1.45.16-2.03.49-.43.24-.77.55-1.04.93v-1.33h-1.54v8.89h1.61v-4.58c0-.65.11-1.19.34-1.63.22-.44.54-.77.94-.99.4-.22.87-.34,1.39-.34.74,0,1.31.22,1.7.65.4.44.6,1.08.6,1.95v4.93h1.61v-4.58c0-.65.11-1.19.33-1.63.22-.44.53-.77.93-.99.4-.22.87-.34,1.41-.34.73,0,1.29.22,1.69.65.4.44.6,1.08.6,1.95v4.93h1.61v-5.12c0-.87-.15-1.59-.46-2.16Z"/>
        <path class="cls-3" d="M49.03,100.4c-.09-.04-.18-.06-.28-.09,0,0,.02,0,.03,0,.23-.11.42-.28.56-.49.14-.21.21-.47.21-.78,0-.46-.18-.82-.53-1.08-.35-.26-.86-.39-1.51-.39h-2.56v5.7h2.72c.72,0,1.27-.13,1.63-.4.37-.27.55-.65.55-1.14,0-.33-.07-.6-.22-.82-.15-.22-.34-.39-.59-.5ZM47.43,98.22c.41,0,.73.08.96.23.23.15.34.38.34.68s-.11.53-.34.68c-.23.15-.55.23-.96.23h-1.67v-1.82h1.67ZM48.66,102.37c-.24.15-.58.23-1.03.23h-1.87v-1.9h1.87c.45,0,.8.08,1.03.23.24.15.36.39.36.72s-.12.56-.36.72Z"/>
        <path class="cls-3" d="M52.55,102.39l-1.51-3.45h-.81l1.9,4.31-.14.3c-.11.25-.23.42-.35.52-.13.1-.28.15-.47.15-.15,0-.29-.03-.42-.08-.13-.05-.25-.13-.36-.24l-.33.59c.14.13.31.23.5.3.2.07.4.1.6.1.22,0,.43-.04.61-.11.18-.07.35-.2.51-.37s.29-.41.42-.72l2.09-4.75h-.77l-1.49,3.45Z"/>
        <path class="cls-3" d="M58.83,98.84c.2-.2.44-.35.71-.46.27-.11.57-.16.89-.16s.6.06.87.17c.27.11.52.28.73.51l.53-.51c-.26-.29-.58-.51-.95-.66-.37-.15-.78-.22-1.22-.22s-.83.07-1.2.22-.69.35-.96.61c-.27.26-.48.57-.64.92-.15.35-.23.74-.23,1.16s.08.81.23,1.16c.15.35.36.66.63.92s.59.47.95.61c.37.14.77.22,1.2.22s.85-.08,1.23-.23c.37-.15.69-.37.95-.67l-.53-.51c-.22.23-.46.41-.73.52-.27.11-.56.17-.87.17s-.62-.05-.89-.16c-.27-.11-.51-.26-.71-.46-.2-.2-.36-.43-.47-.7-.11-.27-.17-.56-.17-.88s.06-.61.17-.88c.11-.27.27-.5.47-.7Z"/>
        <path class="cls-3" d="M65.32,97.56l-2.58,5.7h.84l.63-1.42h3.03l.63,1.42h.85l-2.59-5.7h-.81ZM64.48,101.18l1.23-2.8,1.23,2.8h-2.46Z"/>
        <polygon class="cls-3" points="73.39 97.56 71.33 102.25 69.27 97.56 68.39 97.56 70.9 103.26 71.71 103.26 74.21 97.56 73.39 97.56"/>
        <path class="cls-3" d="M76.47,97.56l-2.58,5.7h.84l.63-1.42h3.03l.63,1.42h.85l-2.59-5.7h-.81ZM75.64,101.18l1.23-2.8,1.23,2.8h-2.46Z"/>
        <polygon class="cls-3" points="81.53 97.56 80.71 97.56 80.71 103.26 84.61 103.26 84.61 102.55 81.53 102.55 81.53 97.56"/>
      </g>
    </g>
  </g>
</svg>