<?xml version="1.0" encoding="UTF-8"?>
<svg id="Layer_2" data-name="Layer 2" xmlns="http://www.w3.org/2000/svg" viewBox="0 0 77.12 77.12">
  <defs>
    <style>
      .cls-1 {
        fill: #003245;
      }

      .cls-2 {
        fill: #108cb1;
      }
    </style>
  </defs>
  <g id="Layer_1-2" data-name="Layer 1">
    <g>
      <g>
        <g>
          <path class="cls-1" d="M44.07,39.48h-19.16c-4.56,0-8.27-3.71-8.27-8.27s3.71-8.27,8.27-8.27h31.02c.64,0,1.16.52,1.16,1.16s-.52,1.16-1.16,1.16h-31.02c-3.28,0-5.96,2.67-5.96,5.96s2.67,5.96,5.96,5.96h19.16c.64,0,1.16.52,1.16,1.16s-.52,1.16-1.16,1.16Z"/>
          <path class="cls-1" d="M52.21,53.7h-30.14c-.64,0-1.16-.52-1.16-1.16s.52-1.16,1.16-1.16h30.14c3.28,0,5.96-2.67,5.96-5.96s-2.67-5.96-5.96-5.96h-17.16c-.64,0-1.16-.52-1.16-1.16s.52-1.16,1.16-1.16h17.16c4.56,0,8.27,3.71,8.27,8.27s-3.71,8.27-8.27,8.27Z"/>
        </g>
        <path class="cls-2" d="M53.77,32.06h-30.23c-.47,0-.85-.38-.85-.85s.38-.85.85-.85h30.23c.47,0,.85.38.85.85s-.38.85-.85.85Z"/>
        <path class="cls-2" d="M53.77,46.29h-30.23c-.47,0-.85-.38-.85-.85s.38-.85.85-.85h30.23c.47,0,.85.38.85.85s-.38.85-.85.85Z"/>
      </g>
      <path class="cls-1" d="M38.56,77.12C17.3,77.12,0,59.82,0,38.56S17.3,0,38.56,0s38.56,17.3,38.56,38.56-17.3,38.56-38.56,38.56ZM38.56.34C17.49.34.34,17.49.34,38.56s17.15,38.22,38.22,38.22,38.22-17.15,38.22-38.22S59.64.34,38.56.34Z"/>
    </g>
  </g>
</svg>