<?xml version="1.0" encoding="UTF-8"?>
<svg id="Layer_2" data-name="Layer 2" xmlns="http://www.w3.org/2000/svg" viewBox="0 0 287.35 63.95">
  <defs>
    <style>
      .cls-1 {
        fill: #003245;
      }

      .cls-2 {
        fill: #108cb1;
      }
    </style>
  </defs>
  <g id="Layer_1-2" data-name="Layer 1">
    <g>
      <path class="cls-1" d="M73.67,29.45H17.12c-6.8,0-12.33-5.53-12.33-12.33s5.53-12.33,12.33-12.33h64.25c1.32,0,2.39-1.07,2.39-2.39s-1.07-2.39-2.39-2.39H17.12C7.68,0,0,7.68,0,17.12s7.68,17.12,17.12,17.12h56.55c6.8,0,12.33,5.53,12.33,12.33s-5.53,12.33-12.33,12.33H11.24c-1.32,0-2.39,1.07-2.39,2.39s1.07,2.39,2.39,2.39h62.43c9.44,0,17.12-7.68,17.12-17.12s-7.68-17.12-17.12-17.12Z"/>
      <path class="cls-2" d="M14.28,15.36c-.97,0-1.76.79-1.76,1.76s.79,1.76,1.76,1.76h62.62c.97,0,1.76-.79,1.76-1.76s-.79-1.76-1.76-1.76H14.28Z"/>
      <path class="cls-2" d="M76.9,48.33c.97,0,1.76-.79,1.76-1.76s-.79-1.76-1.76-1.76H14.28c-.97,0-1.76.79-1.76,1.76s.79,1.76,1.76,1.76h62.62Z"/>
      <path class="cls-1" d="M139.5,26.62c-.97-.54-2.04-.98-3.21-1.31s-2.34-.64-3.5-.91c-1.16-.27-2.22-.57-3.19-.91-.97-.33-1.75-.79-2.36-1.35-.61-.57-.91-1.33-.91-2.28,0-.8.22-1.52.68-2.17.45-.64,1.17-1.16,2.15-1.55s2.23-.58,3.75-.58c1.21,0,2.46.17,3.75.52,1.29.35,2.51.91,3.67,1.68l1.28-3.09c-1.13-.77-2.47-1.37-4.02-1.78-1.55-.41-3.11-.62-4.68-.62-2.37,0-4.32.35-5.86,1.06-1.53.71-2.67,1.65-3.4,2.82s-1.1,2.45-1.1,3.85.3,2.62.89,3.54c.59.92,1.37,1.64,2.34,2.18.97.54,2.04.99,3.21,1.33,1.17.35,2.34.65,3.5.91,1.16.26,2.22.56,3.19.91.97.35,1.75.81,2.36,1.37.6.57.91,1.31.91,2.24,0,.8-.23,1.51-.7,2.15-.46.63-1.19,1.13-2.17,1.49-.98.36-2.25.54-3.83.54-1.73,0-3.39-.3-4.99-.89-1.6-.59-2.91-1.34-3.94-2.24l-1.43,3.02c1.08,1,2.56,1.82,4.45,2.46,1.88.63,3.85.95,5.91.95,2.37,0,4.34-.35,5.9-1.06s2.71-1.65,3.46-2.82c.75-1.17,1.12-2.44,1.12-3.81s-.3-2.58-.89-3.48c-.59-.9-1.37-1.62-2.34-2.17Z"/>
      <path class="cls-1" d="M155.3,36.75c-1.03,0-1.82-.3-2.38-.89-.55-.59-.83-1.44-.83-2.55v-11.1h5.88v-3.05h-5.88v-4.48h-3.71v4.48h-3.48v3.05h3.48v11.25c0,2.06.57,3.65,1.7,4.75,1.13,1.11,2.73,1.66,4.79,1.66.85,0,1.67-.12,2.46-.35s1.46-.59,2.03-1.08l-1.16-2.67c-.77.64-1.74.97-2.9.97Z"/>
      <path class="cls-1" d="M176.98,38.76c1-.56,1.81-1.29,2.44-2.19v3.08h3.52v-20.49h-3.71v10.59c0,1.44-.26,2.67-.77,3.69-.52,1.02-1.25,1.79-2.2,2.32-.95.53-2.08.79-3.36.79-1.75,0-3.11-.5-4.08-1.51-.97-1-1.45-2.51-1.45-4.52v-11.37h-3.71v11.79c0,2.01.37,3.68,1.1,5.01.73,1.33,1.76,2.31,3.09,2.96,1.33.64,2.87.97,4.62.97s3.18-.37,4.52-1.12Z"/>
      <path class="cls-1" d="M198.48,39.88c1.78,0,3.36-.39,4.75-1.18,1-.57,1.85-1.34,2.55-2.3v3.25h3.56V10.97h-3.71v11.33c-.7-.9-1.51-1.63-2.47-2.17-1.39-.77-2.95-1.16-4.68-1.16-1.99,0-3.76.44-5.32,1.31-1.56.88-2.79,2.09-3.69,3.65s-1.35,3.38-1.35,5.47.45,3.92,1.35,5.49,2.13,2.8,3.69,3.67c1.56.88,3.33,1.31,5.32,1.31ZM191.87,29.41c0-1.47.31-2.74.93-3.81.62-1.07,1.44-1.9,2.47-2.49,1.03-.59,2.2-.89,3.52-.89s2.45.3,3.5.89,1.87,1.42,2.47,2.49c.61,1.07.91,2.34.91,3.81s-.3,2.71-.91,3.81c-.61,1.1-1.43,1.94-2.47,2.53-1.04.59-2.21.89-3.5.89s-2.49-.3-3.52-.89c-1.03-.59-1.86-1.44-2.47-2.53-.62-1.1-.93-2.36-.93-3.81Z"/>
      <rect class="cls-1" x="216.38" y="19.16" width="3.71" height="20.49"/>
      <path class="cls-1" d="M218.23,15.22c.75,0,1.35-.24,1.82-.72.46-.48.7-1.06.7-1.76s-.24-1.23-.72-1.68c-.48-.45-1.08-.68-1.8-.68s-1.32.23-1.8.7c-.48.46-.72,1.04-.72,1.74s.24,1.24.72,1.7c.48.46,1.08.7,1.8.7Z"/>
      <path class="cls-1" d="M242.55,29.75c0,1.44-.26,2.67-.77,3.69-.52,1.02-1.25,1.79-2.2,2.32-.95.53-2.08.79-3.36.79-1.75,0-3.11-.5-4.08-1.51-.97-1-1.45-2.51-1.45-4.52v-11.37h-3.71v11.79c0,2.01.37,3.68,1.1,5.01.73,1.33,1.76,2.31,3.09,2.96,1.33.64,2.87.97,4.62.97s3.18-.37,4.52-1.12c1-.56,1.81-1.29,2.44-2.19v3.08h3.52v-20.49h-3.71v10.59Z"/>
      <path class="cls-1" d="M286.29,22.87c-.71-1.31-1.69-2.29-2.96-2.94-1.26-.64-2.72-.97-4.37-.97-2.06,0-3.87.48-5.41,1.43-1.05.65-1.87,1.45-2.49,2.38-.5-.97-1.16-1.77-2.03-2.36-1.42-.97-3.11-1.45-5.06-1.45-1.78,0-3.34.37-4.68,1.12-.99.55-1.79,1.27-2.4,2.14v-3.07h-3.56v20.49h3.71v-10.55c0-1.5.26-2.75.77-3.75.52-1.01,1.24-1.77,2.17-2.28s2-.77,3.21-.77c1.7,0,3.01.5,3.92,1.51s1.37,2.5,1.37,4.48v11.37h3.71v-10.55c0-1.5.25-2.75.75-3.75.5-1.01,1.22-1.77,2.15-2.28s2.01-.77,3.25-.77c1.67,0,2.98.5,3.9,1.51s1.39,2.5,1.39,4.48v11.37h3.71v-11.79c0-2.01-.35-3.67-1.06-4.99Z"/>
      <path class="cls-1" d="M177.47,55.76c-.16-.07-.33-.11-.51-.16.02,0,.03,0,.05-.02.43-.21.77-.51,1.02-.89s.38-.86.38-1.43c0-.83-.32-1.49-.97-1.97-.64-.48-1.56-.72-2.76-.72h-4.67v10.4h4.96c1.32,0,2.31-.25,2.98-.74s1-1.18,1-2.07c0-.59-.13-1.09-.4-1.49-.27-.4-.63-.71-1.08-.91ZM174.54,51.78c.75,0,1.34.14,1.75.42.42.28.62.69.62,1.25s-.21.97-.62,1.25c-.42.28-1,.42-1.75.42h-3.05v-3.33h3.05ZM176.8,59.36c-.44.28-1.06.42-1.89.42h-3.42v-3.46h3.42c.82,0,1.45.14,1.89.42.44.28.65.72.65,1.32s-.22,1.03-.65,1.31Z"/>
      <path class="cls-1" d="M183.9,59.4l-2.75-6.29h-1.49l3.47,7.85-.25.55c-.2.46-.41.77-.64.95-.23.18-.52.27-.86.27-.27,0-.52-.05-.76-.15s-.46-.24-.65-.43l-.61,1.07c.26.24.56.42.92.54.36.12.72.19,1.1.19.41,0,.78-.07,1.11-.2.34-.13.65-.36.93-.68.28-.32.54-.75.77-1.31l3.82-8.66h-1.4l-2.72,6.29Z"/>
      <path class="cls-1" d="M195.35,52.91c.37-.36.8-.63,1.3-.83.5-.2,1.04-.3,1.63-.3s1.09.1,1.59.3c.5.2.94.51,1.34.93l.97-.94c-.48-.53-1.05-.94-1.73-1.21-.68-.27-1.42-.41-2.22-.41s-1.52.13-2.19.39c-.67.26-1.25.63-1.75,1.11-.5.48-.88,1.04-1.16,1.69-.28.64-.42,1.35-.42,2.12s.14,1.48.42,2.12c.28.64.66,1.21,1.15,1.69.49.48,1.07.85,1.74,1.11.67.26,1.4.39,2.19.39s1.56-.14,2.24-.42c.68-.28,1.26-.68,1.73-1.22l-.97-.94c-.4.43-.84.74-1.34.94s-1.02.3-1.59.3-1.13-.1-1.63-.3c-.5-.2-.93-.48-1.3-.83-.37-.36-.65-.78-.85-1.27-.2-.49-.3-1.02-.3-1.6s.1-1.11.3-1.6c.2-.49.49-.91.85-1.27Z"/>
      <path class="cls-1" d="M207.18,50.58l-4.71,10.4h1.53l1.14-2.6h5.53l1.14,2.6h1.56l-4.72-10.4h-1.47ZM205.66,57.19l2.24-5.1,2.24,5.1h-4.48Z"/>
      <polygon class="cls-1" points="221.92 50.58 218.15 59.13 214.4 50.58 212.8 50.58 217.37 60.98 218.84 60.98 223.4 50.58 221.92 50.58"/>
      <path class="cls-1" d="M227.53,50.58l-4.71,10.4h1.53l1.14-2.6h5.53l1.14,2.6h1.56l-4.72-10.4h-1.47ZM226.02,57.19l2.24-5.1,2.24,5.1h-4.48Z"/>
      <polygon class="cls-1" points="236.76 50.58 235.27 50.58 235.27 60.98 242.39 60.98 242.39 59.69 236.76 59.69 236.76 50.58"/>
    </g>
  </g>
</svg>