<?xml version="1.0" encoding="UTF-8"?>
<svg id="Layer_2" data-name="Layer 2" xmlns="http://www.w3.org/2000/svg" viewBox="0 0 181.37 181.37">
  <defs>
    <style>
      .cls-1 {
        fill: #fff;
      }

      .cls-2 {
        fill: #003245;
      }

      .cls-3 {
        fill: #108cb1;
      }
    </style>
  </defs>
  <g id="Layer_1-2" data-name="Layer 1">
    <g>
      <path class="cls-1" d="M181.37,181.37H0V0h181.37v181.37ZM.5,180.87h180.37V.5H.5v180.37Z"/>
      <g>
        <g>
          <path class="cls-2" d="M43.29,137.95c-1.26,0-2.46-.19-3.6-.58-1.15-.38-2.05-.88-2.71-1.5l.87-1.84c.63.55,1.43,1.01,2.4,1.37.97.36,1.99.54,3.04.54.96,0,1.73-.11,2.33-.33.6-.22,1.04-.52,1.32-.91s.42-.82.42-1.31c0-.57-.19-1.02-.55-1.37-.37-.34-.85-.62-1.44-.84-.59-.21-1.24-.4-1.94-.55-.71-.16-1.42-.34-2.13-.55-.71-.21-1.37-.48-1.95-.81-.59-.33-1.06-.77-1.43-1.33s-.54-1.28-.54-2.16.22-1.63.67-2.34c.45-.71,1.14-1.29,2.07-1.72.93-.43,2.12-.65,3.57-.65.96,0,1.91.13,2.85.38.94.25,1.76.61,2.45,1.08l-.78,1.88c-.71-.47-1.45-.81-2.24-1.02-.79-.21-1.55-.32-2.28-.32-.93,0-1.69.12-2.29.35s-1.03.55-1.31.94-.41.83-.41,1.32c0,.58.18,1.04.55,1.39.37.35.85.62,1.44.83s1.24.39,1.94.55c.71.17,1.42.35,2.13.55s1.37.47,1.96.8c.59.33,1.06.77,1.42,1.32s.54,1.26.54,2.12-.23,1.61-.68,2.32c-.46.71-1.16,1.29-2.11,1.72-.95.43-2.15.65-3.59.65Z"/>
          <path class="cls-2" d="M50.99,127.14v-1.86h7.96v1.86h-7.96ZM57.06,137.9c-1.26,0-2.23-.34-2.92-1.01s-1.04-1.64-1.04-2.9v-11.45h2.26v11.35c0,.67.17,1.19.51,1.55.34.36.82.54,1.45.54.71,0,1.3-.2,1.77-.59l.71,1.63c-.35.3-.76.52-1.24.66s-.98.21-1.5.21Z"/>
          <path class="cls-2" d="M67.78,137.9c-1.07,0-2.01-.2-2.81-.59s-1.44-.99-1.88-1.8c-.45-.81-.67-1.83-.67-3.05v-7.18h2.26v6.92c0,1.22.29,2.14.88,2.76s1.42.92,2.48.92c.79,0,1.47-.16,2.05-.48.58-.32,1.03-.79,1.34-1.41.31-.62.47-1.37.47-2.25v-6.45h2.26v12.48h-2.14v-3.37l.35.9c-.41.83-1.02,1.48-1.84,1.93-.82.46-1.73.68-2.76.68Z"/>
          <path class="cls-2" d="M83.63,137.9c-1.21,0-2.29-.27-3.24-.8-.95-.53-1.7-1.28-2.25-2.24s-.82-2.07-.82-3.34.27-2.38.82-3.33,1.3-1.69,2.25-2.23c.95-.53,2.03-.8,3.24-.8,1.05,0,2,.24,2.85.71.85.47,1.53,1.18,2.04,2.12s.77,2.12.77,3.53-.25,2.59-.74,3.53c-.49.94-1.17,1.65-2.01,2.13-.85.48-1.81.72-2.9.72ZM83.82,135.92c.78,0,1.5-.18,2.13-.54.64-.36,1.14-.88,1.51-1.54.37-.67.55-1.44.55-2.32s-.18-1.67-.55-2.32-.87-1.16-1.51-1.52c-.64-.36-1.35-.54-2.13-.54s-1.52.18-2.14.54c-.63.36-1.13.87-1.51,1.52s-.57,1.42-.57,2.32.19,1.65.57,2.32c.38.67.88,1.18,1.51,1.54.63.36,1.34.54,2.14.54ZM88.08,137.76v-3.37l.14-2.9-.24-2.9v-8.31h2.26v17.48h-2.17Z"/>
          <path class="cls-2" d="M95.67,122.88c-.44,0-.8-.14-1.1-.42s-.44-.63-.44-1.04.15-.78.44-1.06c.29-.28.66-.42,1.1-.42s.8.14,1.1.41c.29.28.44.62.44,1.02s-.14.78-.42,1.07c-.28.29-.65.44-1.11.44ZM94.54,137.76v-12.48h2.26v12.48h-2.26Z"/>
          <path class="cls-2" d="M106.36,137.9c-1.07,0-2.01-.2-2.81-.59s-1.44-.99-1.88-1.8c-.45-.81-.67-1.83-.67-3.05v-7.18h2.26v6.92c0,1.22.29,2.14.88,2.76s1.42.92,2.48.92c.79,0,1.47-.16,2.05-.48.58-.32,1.03-.79,1.34-1.41.31-.62.47-1.37.47-2.25v-6.45h2.26v12.48h-2.14v-3.37l.35.9c-.41.83-1.02,1.48-1.84,1.93-.82.46-1.73.68-2.76.68Z"/>
          <path class="cls-2" d="M132.67,125.16c1,0,1.89.2,2.66.59.77.39,1.37.99,1.8,1.79s.65,1.81.65,3.04v7.18h-2.26v-6.92c0-1.21-.28-2.12-.85-2.73-.57-.61-1.36-.92-2.38-.92-.75,0-1.41.16-1.98.47-.57.31-1,.78-1.31,1.39s-.46,1.37-.46,2.29v6.43h-2.26v-6.92c0-1.21-.28-2.12-.84-2.73-.56-.61-1.35-.92-2.39-.92-.74,0-1.39.16-1.95.47-.57.31-1.01.78-1.32,1.39s-.47,1.37-.47,2.29v6.43h-2.26v-12.48h2.17v3.32l-.35-.85c.39-.82,1-1.45,1.81-1.91.82-.46,1.77-.68,2.85-.68,1.19,0,2.22.29,3.09.88.86.59,1.43,1.48,1.7,2.67l-.92-.38c.38-.96,1.04-1.73,1.98-2.31.94-.58,2.04-.87,3.3-.87Z"/>
        </g>
        <g>
          <g>
            <path class="cls-2" d="M96.79,72.09h-30.22c-7.19,0-13.04-5.85-13.04-13.04s5.85-13.04,13.04-13.04h48.93c1.01,0,1.82.82,1.82,1.82s-.82,1.82-1.82,1.82h-48.93c-5.18,0-9.39,4.21-9.39,9.39s4.21,9.39,9.39,9.39h30.22c1.01,0,1.82.82,1.82,1.82s-.82,1.82-1.82,1.82Z"/>
            <path class="cls-2" d="M109.63,94.52h-47.54c-1.01,0-1.82-.82-1.82-1.82s.82-1.82,1.82-1.82h47.54c5.18,0,9.39-4.21,9.39-9.39s-4.21-9.39-9.39-9.39h-27.06c-1.01,0-1.82-.82-1.82-1.82s.82-1.82,1.82-1.82h27.06c7.19,0,13.04,5.85,13.04,13.04s-5.85,13.04-13.04,13.04Z"/>
          </g>
          <path class="cls-3" d="M112.09,60.39h-47.68c-.74,0-1.34-.6-1.34-1.34s.6-1.34,1.34-1.34h47.68c.74,0,1.34.6,1.34,1.34s-.6,1.34-1.34,1.34Z"/>
          <path class="cls-3" d="M112.09,82.82h-47.68c-.74,0-1.34-.6-1.34-1.34s.6-1.34,1.34-1.34h47.68c.74,0,1.34.6,1.34,1.34s-.6,1.34-1.34,1.34Z"/>
        </g>
      </g>
    </g>
  </g>
</svg>